<?xml version="1.0" encoding="UTF-8"?>
<svg id="Layer_1" xmlns="http://www.w3.org/2000/svg" version="1.1" viewBox="0 0 300 300">
  <!-- Generator: Adobe Illustrator 30.1.0, SVG Export Plug-In . SVG Version: 2.1.1 Build 136)  -->
  <defs>
    <style>
      .st0 {
        fill: teal;
      }
    </style>
  </defs>
  <path class="st0" d="M94.79,126.36c.85.04,1.65.03,2.42-.04.76-.08,1.42-.19,1.98-.33.56-.15.98-.33,1.25-.51.27-.2.37-.35.27-.46l-5.68-.64c-18.87-2.6-35.02-1.63-48.44,2.94-8.29,3.24-13.85,8.16-16.67,14.75s-3.14,13.61-.97,20.99c5.32,14.87,17.05,25.08,35.18,30.59,8.01,2.22,16.2,3.47,24.56,3.75,12.58.41,26.09-1.29,40.52-5.07.97-.2,1.88-.37,2.76-.53,1.37,2.61,2.91,4.5,4.63,5.66s3.56,1.98,5.55,2.46c.77,2.18,1.93,3.8,3.45,4.86s3.79,1.81,6.77,2.24c2.98.45,6.43.34,10.32-.31,1.8-.34,2.69-.73,2.68-1.17.09-.57-.76-.91-2.57-1-2-.22-3.55-.51-4.64-.82-1.1-.33-1.91-.69-2.45-1.09s-.87-.87-.99-1.42-.19-1.19-.2-1.92c0-.29-.15-.54-.41-.74-.14-.1-.25-.15-.35-.17-1.93-.45-3.56-1.21-4.9-2.28s-2.45-2.36-3.32-3.87c-.26-.45-.58-1.16-.98-2.12-.39-.97-.69-1.95-.9-2.96-.93-3.6-3.16-5.1-6.68-4.49-.75.12-1.6.34-2.56.69-1.85.75-3.71,1.47-5.59,2.12s-3.74,1.35-5.61,2.06c-14.27,5.35-26.45,6.79-36.52,4.32-7.11-1.47-13.64-4.43-19.6-8.91-7.33-6.25-12.5-13.63-15.52-22.16-1.94-6.44-2.19-12.54-.77-18.31,1.42-5.77,5.29-10.16,11.59-13.18,2.17-.82,4.52-1.46,7.03-1.9,2.52-.45,5.13-.79,7.83-1,2.7-.22,5.47-.33,8.29-.33s5.65.08,8.45.21l.77.09h.02Z"/>
  <path class="st0" d="M159.12,81.64c.22.82.49,1.59.79,2.29.31.7.62,1.29.93,1.78s.61.83.88,1.04c.27.2.45.24.53.12l-1.15-5.6c-3.35-18.75-9.28-33.8-17.76-45.16-5.64-6.89-12.04-10.65-19.18-11.29s-13.91,1.22-20.26,5.57c-12.5,9.66-18.58,23.96-18.22,42.92.36,8.31,1.7,16.48,4.02,24.52,3.5,12.09,9.29,24.42,17.35,36.98.48.86.93,1.68,1.36,2.46-2.06,2.11-3.38,4.16-3.96,6.15s-.78,4-.62,6.04c-1.83,1.41-3.02,3.01-3.56,4.79s-.55,4.16-.04,7.13,1.66,6.22,3.48,9.72c.88,1.6,1.53,2.33,1.94,2.18.57-.09.63-1.01.16-2.75-.4-1.97-.62-3.53-.65-4.67-.03-1.15.06-2.03.27-2.66s.57-1.09,1.05-1.37,1.07-.55,1.76-.79c.27-.09.47-.3.57-.62.05-.16.07-.29.05-.39-.17-1.97.05-3.76.66-5.36.61-1.61,1.49-3.06,2.66-4.36.35-.39.92-.92,1.72-1.59.8-.67,1.64-1.26,2.54-1.77,3.14-2,3.87-4.58,2.2-7.74-.34-.68-.82-1.41-1.44-2.22-1.29-1.53-2.54-3.08-3.75-4.66s-2.44-3.14-3.69-4.7c-9.5-11.93-14.63-23.06-15.39-33.4-.81-7.21,0-14.34,2.42-21.39,3.68-8.9,9.11-16.11,16.27-21.61,5.53-3.84,11.25-5.96,17.17-6.39s11.29,1.88,16.12,6.95c1.45,1.81,2.78,3.84,3.98,6.1,1.21,2.25,2.33,4.64,3.38,7.14s2,5.1,2.87,7.79,1.67,5.39,2.41,8.1l.15.76-.02-.03Z"/>
  <path class="st0" d="M221.54,129c-.71.46-1.35.95-1.93,1.46s-1.04.99-1.41,1.44-.6.84-.71,1.16c-.1.32-.09.5.05.54l4.98-2.83c16.79-8.98,29.28-19.27,37.46-30.85,4.81-7.49,6.41-14.74,4.81-21.74s-5.45-12.85-11.56-17.55c-13.05-8.91-28.53-10.26-46.44-4.08-7.79,2.91-15.15,6.71-22.08,11.39-10.42,7.07-20.36,16.37-29.81,27.93-.67.72-1.3,1.41-1.92,2.06-2.64-1.31-4.99-1.93-7.07-1.86s-4.05.5-5.94,1.28c-1.91-1.31-3.8-1.94-5.65-1.9-1.86.04-4.12.76-6.79,2.16s-5.4,3.5-8.17,6.31c-1.25,1.33-1.75,2.18-1.48,2.53.27.51,1.16.28,2.67-.69,1.75-.99,3.16-1.68,4.24-2.06,1.08-.39,1.95-.57,2.62-.57.67,0,1.21.2,1.63.57.42.38.85.85,1.29,1.44.18.23.43.35.76.36.17,0,.3-.02.39-.07,1.82-.77,3.59-1.11,5.3-1.04,1.71.09,3.38.47,4.97,1.17.47.21,1.16.59,2.04,1.15.88.55,1.71,1.17,2.47,1.87,2.87,2.36,5.55,2.27,8.04-.29.54-.53,1.09-1.22,1.67-2.06,1.05-1.7,2.14-3.37,3.27-5s2.24-3.3,3.32-4.97c8.4-12.72,17.41-21.04,27.01-24.96,6.61-2.99,13.64-4.43,21.09-4.32,9.6.75,18.13,3.68,25.57,8.8,5.35,4.07,9.15,8.86,11.39,14.36,2.24,5.5,1.7,11.33-1.63,17.47-1.28,1.94-2.79,3.83-4.57,5.67-1.77,1.84-3.68,3.65-5.74,5.41s-4.22,3.48-6.52,5.13c-2.29,1.66-4.61,3.26-6.96,4.79l-.68.38h0Z"/>
  <path class="st0" d="M195.78,203c-.66-.53-1.32-.99-1.98-1.39-.66-.39-1.26-.69-1.8-.89-.54-.21-.99-.32-1.32-.32s-.51.07-.5.21l4.22,3.86c13.73,13.19,27.37,21.89,40.92,26.1,8.61,2.25,16,1.54,22.16-2.14,6.17-3.68,10.54-9.16,13.12-16.42,4.44-15.16.94-30.3-10.48-45.43-5.17-6.51-11.06-12.34-17.66-17.48-9.94-7.73-21.86-14.3-35.77-19.71-.89-.41-1.74-.81-2.54-1.19.43-2.92.29-5.35-.41-7.3s-1.72-3.7-3.05-5.25c.66-2.22.68-4.21.06-5.96-.62-1.75-2-3.68-4.16-5.79-2.15-2.11-4.99-4.05-8.53-5.83-1.65-.78-2.6-.99-2.86-.63-.41.41.09,1.18,1.49,2.32,1.48,1.35,2.57,2.49,3.27,3.39.7.91,1.15,1.68,1.35,2.32.2.64.19,1.22-.04,1.73-.22.51-.55,1.07-.97,1.67-.16.24-.2.52-.1.84.05.16.11.27.19.34,1.29,1.5,2.17,3.07,2.62,4.73.45,1.65.59,3.35.41,5.09-.05.51-.21,1.28-.46,2.3-.25,1.01-.59,1.99-1.01,2.93-1.36,3.46-.44,5.98,2.77,7.56.67.34,1.5.66,2.48.95,1.94.48,3.86,1,5.77,1.56s3.83,1.11,5.75,1.63c14.7,4.06,25.39,10.05,32.09,17.97,4.89,5.36,8.43,11.6,10.62,18.73,2.25,9.36,2.1,18.38-.46,27.05-2.22,6.35-5.59,11.44-10.14,15.27-4.54,3.83-10.25,5.11-17.12,3.85-2.24-.61-4.51-1.47-6.81-2.6-2.3-1.11-4.61-2.38-6.92-3.79s-4.61-2.95-6.9-4.62c-2.29-1.66-4.52-3.38-6.71-5.13l-.57-.53h-.03Z"/>
  <path class="st0" d="M117.44,201.37c.3-.8.54-1.57.7-2.31s.27-1.41.29-1.99c.03-.58,0-1.03-.1-1.35-.1-.32-.22-.45-.36-.41l-2.36,5.21c-8.31,17.14-12.36,32.8-12.17,46.98.51,8.88,3.48,15.69,8.88,20.42,5.41,4.72,11.97,7.19,19.66,7.4,15.79-.46,29.11-8.46,39.97-24.01,4.59-6.93,8.31-14.33,11.16-22.2,4.28-11.84,6.85-25.21,7.69-40.11.11-.98.23-1.91.34-2.79,2.9-.5,5.17-1.38,6.81-2.65s2.98-2.78,4.05-4.52c2.31-.06,4.21-.66,5.69-1.78,1.47-1.13,2.89-3.04,4.22-5.74,1.35-2.7,2.31-6.01,2.9-9.91.23-1.82.14-2.78-.28-2.91-.51-.27-1.1.45-1.75,2.13-.83,1.83-1.58,3.22-2.22,4.16s-1.24,1.61-1.79,2-1.1.55-1.65.5-1.19-.19-1.88-.4c-.28-.09-.56-.03-.83.16-.14.09-.23.19-.27.28-1.02,1.7-2.25,3.02-3.68,3.96-1.44.94-3.01,1.6-4.71,1.97-.51.11-1.29.2-2.32.27-1.04.08-2.07.05-3.09-.06-3.72-.22-5.83,1.43-6.33,4.97-.12.75-.16,1.63-.14,2.65.15,1.99.24,3.98.3,5.97s.13,3.98.23,5.97c.68,15.23-1.71,27.25-7.18,36.07-3.59,6.31-8.43,11.6-14.53,15.89-8.21,5.04-16.84,7.68-25.87,7.92-6.73-.15-12.61-1.79-17.65-4.92-5.05-3.14-8.03-8.16-8.95-15.1-.11-2.31,0-4.74.36-7.27.35-2.54.84-5.12,1.47-7.75.63-2.64,1.38-5.29,2.25-7.98.87-2.69,1.82-5.35,2.81-7.97l.33-.7v-.03Z"/>
</svg>